<svg width="200px" height="200.39999999999999px" xmlns="http://www.w3.org/2000/svg" viewBox="28.326562499999994 14.300000000000004 443.346875 121.39999999999999" style="background: rgba(0, 0, 0, 0); transform: scale(2.5);" preserveAspectRatio="xMidYMid"><defs><filter id="editing-hole" x="-100%" y="-100%" width="300%" height="300%"><feFlood flood-color="#757575" result="black"></feFlood><feMorphology operator="dilate" radius="2" in="SourceGraphic" result="erode"></feMorphology><feGaussianBlur in="erode" stdDeviation="4" result="blur"></feGaussianBlur><feOffset in="blur" dx="2" dy="2" result="offset"></feOffset><feComposite operator="atop" in="offset" in2="black" result="merge"></feComposite><feComposite operator="in" in="merge" in2="SourceGraphic" result="inner-shadow"></feComposite></filter></defs><g filter="url(#editing-hole)"><g transform="translate(96.11497712135315, 97.39999961853027)"><path d="M28.42-9.86L28.42-9.86L28.42-9.86Q29.63-8.32 29.63-5.82L29.63-5.82L29.63-5.82Q29.63-2.37 27.07-0.54L27.07-0.54L27.07-0.54Q24.51 1.28 20.48 1.28L20.48 1.28L20.48 1.28Q18.18 1.28 14.66 0.77L14.66 0.77L14.66 0.77Q7.74-0.32 5.63-0.32L5.63-0.32L5.63-0.32Q3.52-0.32 2.69-0.22L2.69-0.22L2.69-0.22Q1.86-0.13 0.51 0L0.51 0L8.38-42.24L35.97-42.24L35.97-42.24Q35.97-38.34 34.08-36.29L34.08-36.29L34.08-36.29Q32.19-34.24 28.48-34.24L28.48-34.24L28.48-34.24Q24.77-34.24 20.99-35.97L20.99-35.97L19.01-24.77L30.40-24.77L30.40-24.77Q30.40-21.38 28.74-19.49L28.74-19.49L28.74-19.49Q27.07-17.60 24.29-17.60L24.29-17.60L24.29-17.60Q21.50-17.60 19.78-18.24L19.78-18.24L19.78-18.24Q18.05-18.88 17.86-19.07L17.86-19.07L15.55-6.98L15.55-6.98Q17.09-6.78 19.97-6.78L19.97-6.78L19.97-6.78Q24.90-6.78 28.42-9.86ZM37.89-10.37L37.89-10.37L37.89-10.37Q35.84-11.84 35.84-14.66L35.84-14.66L35.84-14.66Q35.84-16.19 36.61-17.44L36.61-17.44L36.61-17.44Q37.38-18.69 38.91-18.88L38.91-18.88L51.52-18.88L51.52-18.88Q53.63-18.88 54.27-20.16L54.27-20.16L54.27-20.16Q55.30-19.58 55.74-18.37L55.74-18.37L55.74-18.37Q56.19-17.15 56.19-15.87L56.19-15.87L56.19-15.87Q56.19-14.59 55.20-13.34L55.20-13.34L55.20-13.34Q54.21-12.10 52.74-11.97L52.74-11.97L41.02-11.97L41.02-11.97Q39.68-11.97 39.04-11.55L39.04-11.55L39.04-11.55Q38.40-11.14 37.89-10.37ZM94.02-13.25L94.02-13.25L94.02-13.25Q95.68-12.03 95.68-9.44L95.68-9.44L95.68-9.44Q95.68-6.85 94.56-5.02L94.56-5.02L94.56-5.02Q93.44-3.20 91.26-1.79L91.26-1.79L91.26-1.79Q86.59 1.22 78.43 1.22L78.43 1.22L78.43 1.22Q70.27 1.22 65.82-3.04L65.82-3.04L65.82-3.04Q61.38-7.30 61.38-14.85L61.38-14.85L61.38-14.85Q61.38-25.54 66.94-33.66L66.94-33.66L66.94-33.66Q71.17-39.68 78.72-42.24L78.72-42.24L78.72-42.24Q82.62-43.52 86.46-43.52L86.46-43.52L86.46-43.52Q90.30-43.52 92.67-43.01L92.67-43.01L92.67-43.01Q95.04-42.50 96.83-41.47L96.83-41.47L96.83-41.47Q100.74-39.23 100.74-35.65L100.74-35.65L100.74-35.65Q100.74-32.38 97.66-29.95L97.66-29.95L97.66-29.95Q94.85-27.78 92.54-27.78L92.54-27.78L92.54-27.78Q90.24-27.78 89.28-28.10L89.28-28.10L89.28-28.10Q89.54-30.40 89.54-31.90L89.54-31.90L89.54-31.90Q89.54-33.41 89.47-34.50L89.47-34.50L89.47-34.50Q89.41-35.58 89.09-36.61L89.09-36.61L89.09-36.61Q88.45-38.98 86.50-38.98L86.50-38.98L86.50-38.98Q84.54-38.98 82.59-37.15L82.59-37.15L82.59-37.15Q80.64-35.33 78.98-32.26L78.98-32.26L78.98-32.26Q75.20-25.28 75.20-17.02L75.20-17.02L75.20-17.02Q75.20-13.06 77.44-10.78L77.44-10.78L77.44-10.78Q79.68-8.51 84.48-8.51L84.48-8.51L84.48-8.51Q88.06-8.51 91.46-10.88L91.46-10.88L91.46-10.88Q92.93-11.90 94.02-13.25ZM103.78-1.92L103.78-1.92L103.78-1.92Q102.27-3.58 101.60-6.21L101.60-6.21L101.60-6.21Q100.93-8.83 100.93-13.12L100.93-13.12L100.93-13.12Q100.93-17.41 102.40-21.31L102.40-21.31L102.40-21.31Q103.87-25.22 106.56-28.03L106.56-28.03L106.56-28.03Q112.06-33.92 121.15-33.92L121.15-33.92L121.15-33.92Q124.42-33.92 126.78-32.83L126.78-32.83L137.73-33.92L132.99-8.96L132.99-8.96Q132.80-8.19 132.80-6.78L132.80-6.78L132.80-6.78Q132.80-5.38 133.66-4.48L133.66-4.48L133.66-4.48Q134.53-3.58 135.81-3.46L135.81-3.46L135.81-3.46Q135.17-1.28 132.83 0L132.83 0L132.83 0Q130.50 1.28 127.87 1.28L127.87 1.28L127.87 1.28Q125.25 1.28 123.49 0.29L123.49 0.29L123.49 0.29Q121.73-0.70 121.22-2.37L121.22-2.37L121.22-2.37Q120.19-0.77 118.02 0.26L118.02 0.26L118.02 0.26Q115.84 1.28 112.93 1.28L112.93 1.28L112.93 1.28Q110.02 1.28 107.65 0.51L107.65 0.51L107.65 0.51Q105.28-0.26 103.78-1.92ZM117.28-27.90L117.28-27.90L117.28-27.90Q116.54-26.75 115.90-24.80L115.90-24.80L115.90-24.80Q115.26-22.85 114.21-17.63L114.21-17.63L114.21-17.63Q113.15-12.42 113.15-8.70L113.15-8.70L113.15-8.70Q113.15-4.99 113.73-3.90L113.73-3.90L113.73-3.90Q114.30-2.82 115.33-2.82L115.33-2.82L115.33-2.82Q117.38-2.82 118.88-4.77L118.88-4.77L118.88-4.77Q120.38-6.72 120.96-10.18L120.96-10.18L124.35-28.93L124.35-28.93Q123.01-30.08 121.44-30.08L121.44-30.08L121.44-30.08Q119.87-30.08 118.94-29.57L118.94-29.57L118.94-29.57Q118.02-29.06 117.28-27.90ZM168.26 1.28L168.26 1.28L168.26 1.28Q160.51 1.28 160.51-4.74L160.51-4.74L160.51-4.74Q160.58-6.40 161.09-9.22L161.09-9.22L162.24-15.10L162.24-15.10Q163.97-23.42 163.97-25.28L163.97-25.28L163.97-25.28Q163.97-28.99 161.79-28.99L161.79-28.99L161.79-28.99Q158.14-28.99 156.22-19.46L156.22-19.46L152.45 0L139.58 1.28L146.24-32.70L156.74-33.92L155.71-27.65L155.71-27.65Q158.72-33.92 167.94-33.92L167.94-33.92L167.94-33.92Q172.42-33.92 174.30-32.03L174.30-32.03L174.30-32.03Q176.19-30.14 176.19-25.92L176.19-25.92L176.19-25.92Q176.19-21.95 174.14-12.67L174.14-12.67L174.14-12.67Q173.18-8.51 173.18-6.94L173.18-6.94L173.18-6.94Q173.18-5.38 174.05-4.48L174.05-4.48L174.05-4.48Q174.91-3.58 176.19-3.46L176.19-3.46L176.19-3.46Q175.55-1.28 173.34 0L173.34 0L173.34 0Q171.14 1.28 168.26 1.28ZM182.34-6.40L182.34-6.40L182.34-6.40Q182.34-8.13 183.23-12.48L183.23-12.48L186.62-29.76L182.85-29.76L183.10-31.68L183.10-31.68Q190.78-33.98 198.21-39.62L198.21-39.62L201.28-39.62L199.74-32.64L204.74-32.64L204.16-29.76L199.23-29.76L195.97-12.48L195.97-12.48Q195.14-8.51 195.14-7.17L195.14-7.17L195.14-7.17Q195.14-4.10 197.82-3.46L197.82-3.46L197.82-3.46Q197.18-1.28 194.88 0L194.88 0L194.88 0Q192.58 1.28 189.31 1.28L189.31 1.28L189.31 1.28Q186.05 1.28 184.19-0.77L184.19-0.77L184.19-0.77Q182.34-2.82 182.34-6.40ZM230.08-10.82L230.08-10.82L230.08-10.82Q231.68-9.73 231.68-7.33L231.68-7.33L231.68-7.33Q231.68-4.93 230.46-3.39L230.46-3.39L230.46-3.39Q229.25-1.86 227.26-0.83L227.26-0.83L227.26-0.83Q223.17 1.28 218.75 1.28L218.75 1.28L218.75 1.28Q214.34 1.28 211.74 0.32L211.74 0.32L211.74 0.32Q209.15-0.64 207.42-2.43L207.42-2.43L207.42-2.43Q204.03-5.82 204.03-12.03L204.03-12.03L204.03-12.03Q204.03-21.70 209.28-27.58L209.28-27.58L209.28-27.58Q214.91-33.92 224.70-33.92L224.70-33.92L224.70-33.92Q230.78-33.92 233.79-31.36L233.79-31.36L233.79-31.36Q236.03-29.44 236.03-26.30L236.03-26.30L236.03-26.30Q236.03-15.04 216.58-15.04L216.58-15.04L216.58-15.04Q216.32-13.38 216.32-11.97L216.32-11.97L216.32-11.97Q216.32-9.02 217.63-7.90L217.63-7.90L217.63-7.90Q218.94-6.78 221.38-6.78L221.38-6.78L221.38-6.78Q223.81-6.78 226.40-7.90L226.40-7.90L226.40-7.90Q228.99-9.02 230.08-10.82ZM217.02-17.79L217.02-17.79L217.02-17.79Q221.57-17.79 224.19-20.61L224.19-20.61L224.19-20.61Q226.82-23.30 226.82-27.58L226.82-27.58L226.82-27.58Q226.82-29.06 226.27-29.86L226.27-29.86L226.27-29.86Q225.73-30.66 224.64-30.66L224.64-30.66L224.64-30.66Q223.55-30.66 222.62-30.24L222.62-30.24L222.62-30.24Q221.70-29.82 220.74-28.42L220.74-28.42L220.74-28.42Q218.37-25.22 217.02-17.79ZM264.13-10.82L264.13-10.82L264.13-10.82Q265.73-9.73 265.73-7.33L265.73-7.33L265.73-7.33Q265.73-4.93 264.51-3.39L264.51-3.39L264.51-3.39Q263.30-1.86 261.31-0.83L261.31-0.83L261.31-0.83Q257.22 1.28 252.80 1.28L252.80 1.28L252.80 1.28Q248.38 1.28 245.79 0.32L245.79 0.32L245.79 0.32Q243.20-0.64 241.47-2.43L241.47-2.43L241.47-2.43Q238.08-5.82 238.08-12.03L238.08-12.03L238.08-12.03Q238.08-21.70 243.33-27.58L243.33-27.58L243.33-27.58Q248.96-33.92 258.75-33.92L258.75-33.92L258.75-33.92Q264.83-33.92 267.84-31.36L267.84-31.36L267.84-31.36Q270.08-29.44 270.08-26.30L270.08-26.30L270.08-26.30Q270.08-15.04 250.62-15.04L250.62-15.04L250.62-15.04Q250.37-13.38 250.37-11.97L250.37-11.97L250.37-11.97Q250.37-9.02 251.68-7.90L251.68-7.90L251.68-7.90Q252.99-6.78 255.42-6.78L255.42-6.78L255.42-6.78Q257.86-6.78 260.45-7.90L260.45-7.90L260.45-7.90Q263.04-9.02 264.13-10.82ZM251.07-17.79L251.07-17.79L251.07-17.79Q255.62-17.79 258.24-20.61L258.24-20.61L258.24-20.61Q260.86-23.30 260.86-27.58L260.86-27.58L260.86-27.58Q260.86-29.06 260.32-29.86L260.32-29.86L260.32-29.86Q259.78-30.66 258.69-30.66L258.69-30.66L258.69-30.66Q257.60-30.66 256.67-30.24L256.67-30.24L256.67-30.24Q255.74-29.82 254.78-28.42L254.78-28.42L254.78-28.42Q252.42-25.22 251.07-17.79ZM299.33 1.28L299.33 1.28L299.33 1.28Q291.58 1.28 291.58-4.74L291.58-4.74L291.58-4.74Q291.65-6.40 292.16-9.22L292.16-9.22L293.31-15.10L293.31-15.10Q295.04-23.42 295.04-25.28L295.04-25.28L295.04-25.28Q295.04-28.99 292.86-28.99L292.86-28.99L292.86-28.99Q289.22-28.99 287.30-19.46L287.30-19.46L283.52 0L270.66 1.28L277.31-32.70L287.81-33.92L286.78-27.65L286.78-27.65Q289.79-33.92 299.01-33.92L299.01-33.92L299.01-33.92Q303.49-33.92 305.38-32.03L305.38-32.03L305.38-32.03Q307.26-30.14 307.26-25.92L307.26-25.92L307.26-25.92Q307.26-21.95 305.22-12.67L305.22-12.67L305.22-12.67Q304.26-8.51 304.26-6.94L304.26-6.94L304.26-6.94Q304.26-5.38 305.12-4.48L305.12-4.48L305.12-4.48Q305.98-3.58 307.26-3.46L307.26-3.46L307.26-3.46Q306.62-1.28 304.42 0L304.42 0L304.42 0Q302.21 1.28 299.33 1.28Z" fill="#2fafff"></path></g></g><style>text {
  font-size: 64px;
  font-family: Arial Black;
  dominant-baseline: central;
  text-anchor: middle;
}</style></svg>