<svg width="100%" height="94.39999999999999px" xmlns="http://www.w3.org/2000/svg" viewBox="-120.903106689453125 27.800000000000004 599.8062133789062 94.39999999999999" style="background: rgba(0, 0, 0, 0); transform: scale(2);" preserveAspectRatio="xMidYMid"><defs><filter id="editing-hole" x="-100%" y="-100%" width="300%" height="300%"><feFlood flood-color="#cccccc" result="black"></feFlood><feMorphology operator="dilate" radius="2" in="SourceGraphic" result="erode"></feMorphology><feGaussianBlur in="erode" stdDeviation="4" result="blur"></feGaussianBlur><feOffset in="blur" dx="2" dy="2" result="offset"></feOffset><feComposite operator="atop" in="offset" in2="black" result="merge"></feComposite><feComposite operator="in" in="merge" in2="SourceGraphic" result="inner-shadow"></feComposite></filter></defs><g filter="url(#editing-hole)"><g transform="translate(38.264976650476456, 92.62500190734863)"><path d="M19.13-21.71L19.13-21.71L19.13-21.71Q19.83-23.12 19.83-24.44L19.83-24.44L19.83-24.44Q19.83-25.76 19.69-26.48L19.69-26.48L19.69-26.48Q19.55-27.21 19.22-27.78L19.22-27.78L19.22-27.78Q18.52-29.00 17.11-29.00L17.11-29.00L17.11-29.00Q15.37-29.00 13.96-27.73L13.96-27.73L13.96-27.73Q12.46-26.41 12.46-24.35L12.46-24.35L12.46-24.35Q12.46-23.03 13.37-22.02L13.37-22.02L13.37-22.02Q14.29-21.01 15.70-20.07L15.70-20.07L15.70-20.07Q17.11-19.13 18.71-18.19L18.71-18.19L18.71-18.19Q20.30-17.25 21.71-16.12L21.71-16.12L21.71-16.12Q24.96-13.54 24.96-10.06L24.96-10.06L24.96-10.06Q24.96-7.71 23.71-5.71L23.71-5.71L23.71-5.71Q22.47-3.71 20.40-2.26L20.40-2.26L20.40-2.26Q15.89 0.94 9.92 0.94L9.92 0.94L9.92 0.94Q5.08 0.94 2.58-0.63L2.58-0.63L2.58-0.63Q0.09-2.21 0.09-4.61L0.09-4.61L0.09-4.61Q0.09-8.88 3.43-9.96L3.43-9.96L3.43-9.96Q4.37-10.29 5.80-10.29L5.80-10.29L5.80-10.29Q7.24-10.29 8.88-9.68L8.88-9.68L8.88-9.68Q8.13-7.75 8.13-6.02L8.13-6.02L8.13-6.02Q8.13-2.26 10.81-2.26L10.81-2.26L10.81-2.26Q12.55-2.26 13.98-3.52L13.98-3.52L13.98-3.52Q15.42-4.79 15.42-6.23L15.42-6.23L15.42-6.23Q15.42-7.66 14.50-8.70L14.50-8.70L14.50-8.70Q13.58-9.73 12.22-10.55L12.22-10.55L12.22-10.55Q10.86-11.37 9.28-12.17L9.28-12.17L9.28-12.17Q7.71-12.97 6.34-14.10L6.34-14.10L6.34-14.10Q3.15-16.68 3.15-20.82L3.15-20.82L3.15-20.82Q3.15-23.50 4.46-25.59L4.46-25.59L4.46-25.59Q5.78-27.68 7.90-29.09L7.90-29.09L7.90-29.09Q12.13-31.96 17.32-31.96L17.32-31.96L17.32-31.96Q22.51-31.96 25.03-30.41L25.03-30.41L25.03-30.41Q27.54-28.86 27.54-26.23L27.54-26.23L27.54-26.23Q27.54-23.92 25.76-22.47L25.76-22.47L25.76-22.47Q24.20-21.24 22.32-21.24L22.32-21.24L22.32-21.24Q20.45-21.24 19.13-21.71ZM29.28-4.70L29.28-4.70L29.28-4.70Q29.28-5.97 29.94-9.16L29.94-9.16L32.43-21.86L29.66-21.86L29.84-23.27L29.84-23.27Q35.48-24.96 40.94-29.09L40.94-29.09L43.19-29.09L42.06-23.97L45.73-23.97L45.31-21.86L41.69-21.86L39.29-9.16L39.29-9.16Q38.68-6.25 38.68-5.26L38.68-5.26L38.68-5.26Q38.68-3.01 40.66-2.54L40.66-2.54L40.66-2.54Q40.19-0.94 38.49 0L38.49 0L38.49 0Q36.80 0.94 34.40 0.94L34.40 0.94L34.40 0.94Q32.01 0.94 30.64-0.56L30.64-0.56L30.64-0.56Q29.28-2.07 29.28-4.70ZM56.78-2.58L56.78-2.58L56.78-2.58Q55.32 0.94 50.67 0.94L50.67 0.94L50.67 0.94Q48.27 0.94 46.77-0.70L46.77-0.70L46.77-0.70Q45.50-2.16 45.50-3.62L45.50-3.62L45.50-3.62Q45.50-7.43 47.23-14.85L47.23-14.85L48.97-23.97L58.52-24.91L55.65-10.06L55.65-10.06Q54.85-6.58 54.85-5.36L54.85-5.36L54.85-5.36Q54.85-2.68 56.78-2.58ZM49.82-30.50L49.82-30.50L49.82-30.50Q49.82-32.34 51.35-33.32L51.35-33.32L51.35-33.32Q52.88-34.31 55.08-34.31L55.08-34.31L55.08-34.31Q57.29-34.31 58.63-33.32L58.63-33.32L58.63-33.32Q59.97-32.34 59.97-30.50L59.97-30.50L59.97-30.50Q59.97-28.67 58.49-27.73L58.49-27.73L58.49-27.73Q57.01-26.79 54.80-26.79L54.80-26.79L54.80-26.79Q52.59-26.79 51.21-27.73L51.21-27.73L51.21-27.73Q49.82-28.67 49.82-30.50ZM72.90-22.28L72.90-22.28L72.90-22.28Q75.44-24.91 80.79-24.91L80.79-24.91L80.79-24.91Q83.75-24.91 85.38-23.34L85.38-23.34L85.38-23.34Q87.00-21.76 87.00-18.87L87.00-18.87L87.00-18.87Q87.00-15.98 85.38-13.94L85.38-13.94L85.38-13.94Q83.75-11.89 80.75-11.04L80.75-11.04L80.75-11.04Q80.98-10.11 81.31-9.12L81.31-9.12L81.97-7.24L81.97-7.24Q82.86-4.84 83.57-4.00L83.57-4.00L83.57-4.00Q84.27-3.15 85.21-2.87L85.21-2.87L85.21-2.87Q84.69-0.94 82.81 0.09L82.81 0.09L82.81 0.09Q81.31 0.94 79.24 0.94L79.24 0.94L79.24 0.94Q73.18 0.94 72.38-8.41L72.38-8.41L72.38-8.41Q72.24-9.73 72.24-11.04L72.24-11.04L72.24-11.04Q74.59-11.70 76.23-13.91L76.23-13.91L76.23-13.91Q77.88-16.12 77.88-18.71L77.88-18.71L77.88-18.71Q77.88-21.29 76.05-21.29L76.05-21.29L76.05-21.29Q74.73-21.29 73.70-19.83L73.70-19.83L73.70-19.83Q72.66-18.38 72.19-15.89L72.19-15.89L69.09 0L59.60 0.94L66.18-32.90L75.62-33.84L74.54-28.25L74.54-28.25Q73.84-24.30 72.90-22.28ZM99.41 0.94L99.41 0.94L99.41 0.94Q89.06 0.94 89.06-8.79L89.06-8.79L89.06-8.79Q89.06-15.70 92.87-20.16L92.87-20.16L92.87-20.16Q96.91-24.91 103.92-24.91L103.92-24.91L103.92-24.91Q108.99-24.91 111.58-22.56L111.58-22.56L111.58-22.56Q114.16-20.21 114.16-15.28L114.16-15.28L114.16-15.28Q114.16-7.75 110.12-3.38L110.12-3.38L110.12-3.38Q106.17 0.94 99.41 0.94ZM100.63-19.50L100.63-19.50L100.63-19.50Q100.06-18.24 99.62-16.33L99.62-16.33L99.62-16.33Q99.17-14.43 98.61-11.42L98.61-11.42L98.61-11.42Q98.04-8.41 98.04-4.70L98.04-4.70L98.04-4.70Q98.04-3.48 98.44-2.68L98.44-2.68L98.44-2.68Q98.84-1.88 99.92-1.88L99.92-1.88L99.92-1.88Q101.00-1.88 101.68-2.40L101.68-2.40L101.68-2.40Q102.37-2.91 102.88-4.14L102.88-4.14L102.88-4.14Q103.82-6.30 104.58-10.32L104.58-10.32L104.58-10.32Q105.33-14.34 105.40-16.07L105.40-16.07L105.40-16.07Q105.47-17.81 105.47-19.11L105.47-19.11L105.47-19.11Q105.47-20.40 105.09-21.24L105.09-21.24L105.09-21.24Q104.72-22.09 103.66-22.09L103.66-22.09L103.66-22.09Q102.60-22.09 101.90-21.43L101.90-21.43L101.90-21.43Q101.19-20.77 100.63-19.50ZM150.78 0.94L150.78 0.94L150.78 0.94Q145.09 0.94 145.09-3.48L145.09-3.48L145.09-3.48Q145.09-5.41 145.91-9.14L145.91-9.14L145.91-9.14Q146.73-12.88 147.02-14.38L147.02-14.38L147.02-14.38Q147.67-17.81 147.67-18.89L147.67-18.89L147.67-18.89Q147.67-21.29 145.89-21.29L145.89-21.29L145.89-21.29Q144.71-21.29 143.59-19.67L143.59-19.67L143.59-19.67Q142.46-18.05 141.94-14.80L141.94-14.80L139.03 0L129.86 0.94L132.40-11.84L132.40-11.84Q132.82-13.96 133.20-16.36L133.20-16.36L133.20-16.36Q133.57-18.75 133.57-19.13L133.57-19.13L133.57-19.13Q133.57-21.29 131.98-21.29L131.98-21.29L131.98-21.29Q130.90-21.29 129.72-19.69L129.72-19.69L129.72-19.69Q128.54-18.09 127.89-14.80L127.89-14.80L125.02 0L115.76 0.94L120.70-23.97L128.36-24.91L127.56-20.16L127.56-20.16Q128.78-22.70 131.04-23.81L131.04-23.81L131.04-23.81Q133.29-24.91 136.82-24.91L136.82-24.91L136.82-24.91Q138.84-24.91 140.15-23.92L140.15-23.92L140.15-23.92Q141.47-22.94 141.89-21.34L141.89-21.34L141.89-21.34Q142.69-22.98 144.74-23.95L144.74-23.95L144.74-23.95Q146.78-24.91 149.30-24.91L149.30-24.91L149.30-24.91Q151.81-24.91 153.06-24.37L153.06-24.37L153.06-24.37Q154.30-23.83 155.05-22.94L155.05-22.94L155.05-22.94Q156.32-21.29 156.32-18.28L156.32-18.28L156.32-18.28Q156.32-15.32 155.05-9.16L155.05-9.16L155.05-9.16Q154.40-6.16 154.40-5.05L154.40-5.05L154.40-5.05Q154.40-3.95 155.03-3.29L155.03-3.29L155.03-3.29Q155.66-2.63 156.60-2.54L156.60-2.54L156.60-2.54Q156.13-0.94 154.51 0L154.51 0L154.51 0Q152.89 0.94 150.78 0.94ZM179.26-7.94L179.26-7.94L179.26-7.94Q180.43-7.14 180.43-5.38L180.43-5.38L180.43-5.38Q180.43-3.62 179.54-2.49L179.54-2.49L179.54-2.49Q178.65-1.36 177.19-0.61L177.19-0.61L177.19-0.61Q174.18 0.94 170.94 0.94L170.94 0.94L170.94 0.94Q167.70 0.94 165.79 0.23L165.79 0.23L165.79 0.23Q163.89-0.47 162.62-1.79L162.62-1.79L162.62-1.79Q160.13-4.28 160.13-8.84L160.13-8.84L160.13-8.84Q160.13-15.93 163.98-20.26L163.98-20.26L163.98-20.26Q168.12-24.91 175.31-24.91L175.31-24.91L175.31-24.91Q179.78-24.91 181.98-23.03L181.98-23.03L181.98-23.03Q183.63-21.62 183.63-19.32L183.63-19.32L183.63-19.32Q183.63-11.04 169.34-11.04L169.34-11.04L169.34-11.04Q169.15-9.82 169.15-8.79L169.15-8.79L169.15-8.79Q169.15-6.63 170.12-5.80L170.12-5.80L170.12-5.80Q171.08-4.98 172.87-4.98L172.87-4.98L172.87-4.98Q174.65-4.98 176.56-5.80L176.56-5.80L176.56-5.80Q178.46-6.63 179.26-7.94ZM169.67-13.07L169.67-13.07L169.67-13.07Q173.01-13.07 174.93-15.13L174.93-15.13L174.93-15.13Q176.86-17.11 176.86-20.26L176.86-20.26L176.86-20.26Q176.86-21.34 176.46-21.93L176.46-21.93L176.46-21.93Q176.06-22.51 175.26-22.51L175.26-22.51L175.26-22.51Q174.46-22.51 173.78-22.21L173.78-22.21L173.78-22.21Q173.10-21.90 172.40-20.87L172.40-20.87L172.40-20.87Q170.66-18.52 169.67-13.07ZM199.94-13.21L199.94-13.21L199.94-13.21Q201.63-16.21 201.63-19.27L201.63-19.27L201.63-19.27Q201.63-21.29 200.17-21.29L200.17-21.29L200.17-21.29Q199.04-21.29 197.87-19.36L197.87-19.36L197.87-19.36Q196.65-17.44 196.27-14.95L196.27-14.95L193.83 0L184.10 0.94L188.89-23.97L196.65-24.91L195.80-20.16L195.80-20.16Q198.10-24.91 203.28-24.91L203.28-24.91L203.28-24.91Q206.00-24.91 207.48-23.50L207.48-23.50L207.48-23.50Q208.96-22.09 208.96-19.20L208.96-19.20L208.96-19.20Q208.96-16.31 207.06-14.48L207.06-14.48L207.06-14.48Q205.16-12.64 201.91-12.64L201.91-12.64L201.91-12.64Q200.50-12.64 199.94-13.21ZM223.77-16.50L223.77-16.50L223.77-16.50Q224.42-18.24 224.42-19.74L224.42-19.74L224.42-19.74Q224.42-22.51 222.17-22.51L222.17-22.51L222.17-22.51Q220.99-22.51 220.03-21.46L220.03-21.46L220.03-21.46Q219.07-20.40 219.07-19.08L219.07-19.08L219.07-19.08Q219.07-18.14 219.82-17.39L219.82-17.39L219.82-17.39Q220.90-16.36 223.67-14.66L223.67-14.66L223.67-14.66Q226.45-12.97 227.50-11.59L227.50-11.59L227.50-11.59Q228.56-10.20 228.56-8.30L228.56-8.30L228.56-8.30Q228.56-6.39 227.64-4.65L227.64-4.65L227.64-4.65Q226.73-2.91 225.08-1.69L225.08-1.69L225.08-1.69Q221.56 0.94 215.92 0.94L215.92 0.94L215.92 0.94Q212.86 0.94 210.51-0.66L210.51-0.66L210.51-0.66Q208.16-2.21 208.16-4.04L208.16-4.04L208.16-4.04Q208.16-5.88 209.50-6.96L209.50-6.96L209.50-6.96Q210.84-8.04 212.82-8.04L212.82-8.04L212.82-8.04Q214.79-8.04 216.01-7.29L216.01-7.29L216.01-7.29Q215.40-5.73 215.40-4.70L215.40-4.70L215.40-4.70Q215.40-1.60 218.03-1.60L218.03-1.60L218.03-1.60Q219.16-1.60 219.91-2.30L219.91-2.30L219.91-2.30Q220.66-3.01 220.66-4.23L220.66-4.23L220.66-4.23Q220.66-6.63 216.62-9.16L216.62-9.16L216.62-9.16Q213.33-11.33 212.58-12.17L212.58-12.17L212.58-12.17Q211.31-13.68 211.31-15.56L211.31-15.56L211.31-15.56Q211.31-17.44 212.20-19.22L212.20-19.22L212.20-19.22Q213.10-21.01 214.74-22.28L214.74-22.28L214.74-22.28Q218.17-24.91 224.14-24.91L224.14-24.91L224.14-24.91Q227.20-24.91 229.01-23.69L229.01-23.69L229.01-23.69Q230.82-22.47 230.82-20.40L230.82-20.40L230.82-20.40Q230.82-18.33 229.57-17.16L229.57-17.16L229.57-17.16Q228.33-15.98 226.07-15.98L226.07-15.98L226.07-15.98Q224.52-15.98 223.77-16.50ZM266.77-9.73L266.77-9.73L266.77-9.73Q267.99-8.84 267.99-6.93L267.99-6.93L267.99-6.93Q267.99-5.03 267.17-3.69L267.17-3.69L267.17-3.69Q266.35-2.35 264.75-1.32L264.75-1.32L264.75-1.32Q261.32 0.89 255.33 0.89L255.33 0.89L255.33 0.89Q249.33 0.89 246.07-2.23L246.07-2.23L246.07-2.23Q242.80-5.36 242.80-10.90L242.80-10.90L242.80-10.90Q242.80-18.75 246.89-24.72L246.89-24.72L246.89-24.72Q249.99-29.14 255.54-31.02L255.54-31.02L255.54-31.02Q258.41-31.96 261.23-31.96L261.23-31.96L261.23-31.96Q264.05-31.96 265.78-31.58L265.78-31.58L265.78-31.58Q267.52-31.21 268.84-30.46L268.84-30.46L268.84-30.46Q271.71-28.81 271.71-26.18L271.71-26.18L271.71-26.18Q271.71-23.78 269.45-22.00L269.45-22.00L269.45-22.00Q267.38-20.40 265.69-20.40L265.69-20.40L265.69-20.40Q264.00-20.40 263.29-20.63L263.29-20.63L263.29-20.63Q263.48-22.32 263.48-23.43L263.48-23.43L263.48-23.43Q263.48-24.53 263.44-25.33L263.44-25.33L263.44-25.33Q263.39-26.13 263.15-26.88L263.15-26.88L263.15-26.88Q262.68-28.62 261.25-28.62L261.25-28.62L261.25-28.62Q259.82-28.62 258.38-27.28L258.38-27.28L258.38-27.28Q256.95-25.94 255.73-23.69L255.73-23.69L255.73-23.69Q252.95-18.57 252.95-12.50L252.95-12.50L252.95-12.50Q252.95-9.59 254.60-7.92L254.60-7.92L254.60-7.92Q256.24-6.25 259.77-6.25L259.77-6.25L259.77-6.25Q262.40-6.25 264.89-7.99L264.89-7.99L264.89-7.99Q265.97-8.74 266.77-9.73ZM273.94-1.41L273.94-1.41L273.94-1.41Q272.83-2.63 272.34-4.56L272.34-4.56L272.34-4.56Q271.85-6.49 271.85-9.63L271.85-9.63L271.85-9.63Q271.85-12.78 272.93-15.65L272.93-15.65L272.93-15.65Q274.01-18.52 275.98-20.59L275.98-20.59L275.98-20.59Q280.03-24.91 286.70-24.91L286.70-24.91L286.70-24.91Q289.10-24.91 290.84-24.11L290.84-24.11L298.87-24.91L295.39-6.58L295.39-6.58Q295.25-6.02 295.25-4.98L295.25-4.98L295.25-4.98Q295.25-3.95 295.89-3.29L295.89-3.29L295.89-3.29Q296.52-2.63 297.46-2.54L297.46-2.54L297.46-2.54Q296.99-0.94 295.28 0L295.28 0L295.28 0Q293.56 0.94 291.63 0.94L291.63 0.94L291.63 0.94Q289.71 0.94 288.42 0.21L288.42 0.21L288.42 0.21Q287.12-0.52 286.75-1.74L286.75-1.74L286.75-1.74Q286.00-0.56 284.40 0.19L284.40 0.19L284.40 0.19Q282.80 0.94 280.66 0.94L280.66 0.94L280.66 0.94Q278.52 0.94 276.78 0.38L276.78 0.38L276.78 0.38Q275.04-0.19 273.94-1.41ZM283.86-20.49L283.86-20.49L283.86-20.49Q283.32-19.65 282.85-18.21L282.85-18.21L282.85-18.21Q282.38-16.78 281.60-12.95L281.60-12.95L281.60-12.95Q280.82-9.12 280.82-6.39L280.82-6.39L280.82-6.39Q280.82-3.67 281.25-2.87L281.25-2.87L281.25-2.87Q281.67-2.07 282.42-2.07L282.42-2.07L282.42-2.07Q283.93-2.07 285.03-3.50L285.03-3.50L285.03-3.50Q286.14-4.93 286.56-7.47L286.56-7.47L289.05-21.24L289.05-21.24Q288.06-22.09 286.91-22.09L286.91-22.09L286.91-22.09Q285.76-22.09 285.08-21.71L285.08-21.71L285.08-21.71Q284.40-21.34 283.86-20.49ZM321.29 0.94L321.29 0.94L321.29 0.94Q315.61 0.94 315.61-3.48L315.61-3.48L315.61-3.48Q315.65-4.70 316.03-6.77L316.03-6.77L316.87-11.09L316.87-11.09Q318.14-17.20 318.14-18.57L318.14-18.57L318.14-18.57Q318.14-21.29 316.55-21.29L316.55-21.29L316.55-21.29Q313.87-21.29 312.46-14.29L312.46-14.29L309.68 0L300.24 0.94L305.12-24.02L312.83-24.91L312.08-20.30L312.08-20.30Q314.29-24.91 321.06-24.91L321.06-24.91L321.06-24.91Q324.35-24.91 325.73-23.52L325.73-23.52L325.73-23.52Q327.12-22.14 327.12-19.04L327.12-19.04L327.12-19.04Q327.12-16.12 325.62-9.31L325.62-9.31L325.62-9.31Q324.91-6.25 324.91-5.10L324.91-5.10L324.91-5.10Q324.91-3.95 325.55-3.29L325.55-3.29L325.55-3.29Q326.18-2.63 327.12-2.54L327.12-2.54L327.12-2.54Q326.65-0.94 325.03 0L325.03 0L325.03 0Q323.41 0.94 321.29 0.94ZM331.63-4.70L331.63-4.70L331.63-4.70Q331.63-5.97 332.29-9.16L332.29-9.16L334.78-21.86L332.01-21.86L332.20-23.27L332.20-23.27Q337.84-24.96 343.29-29.09L343.29-29.09L345.54-29.09L344.42-23.97L348.08-23.97L347.66-21.86L344.04-21.86L341.64-9.16L341.64-9.16Q341.03-6.25 341.03-5.26L341.03-5.26L341.03-5.26Q341.03-3.01 343.01-2.54L343.01-2.54L343.01-2.54Q342.54-0.94 340.84 0L340.84 0L340.84 0Q339.15 0.94 336.75 0.94L336.75 0.94L336.75 0.94Q334.36 0.94 333.00-0.56L333.00-0.56L333.00-0.56Q331.63-2.07 331.63-4.70ZM366.69-7.94L366.69-7.94L366.69-7.94Q367.87-7.14 367.87-5.38L367.87-5.38L367.87-5.38Q367.87-3.62 366.98-2.49L366.98-2.49L366.98-2.49Q366.08-1.36 364.63-0.61L364.63-0.61L364.63-0.61Q361.62 0.94 358.38 0.94L358.38 0.94L358.38 0.94Q355.13 0.94 353.23 0.23L353.23 0.23L353.23 0.23Q351.32-0.47 350.06-1.79L350.06-1.79L350.06-1.79Q347.56-4.28 347.56-8.84L347.56-8.84L347.56-8.84Q347.56-15.93 351.42-20.26L351.42-20.26L351.42-20.26Q355.56-24.91 362.75-24.91L362.75-24.91L362.75-24.91Q367.21-24.91 369.42-23.03L369.42-23.03L369.42-23.03Q371.06-21.62 371.06-19.32L371.06-19.32L371.06-19.32Q371.06-11.04 356.78-11.04L356.78-11.04L356.78-11.04Q356.59-9.82 356.59-8.79L356.59-8.79L356.59-8.79Q356.59-6.63 357.55-5.80L357.55-5.80L357.55-5.80Q358.52-4.98 360.30-4.98L360.30-4.98L360.30-4.98Q362.09-4.98 363.99-5.80L363.99-5.80L363.99-5.80Q365.90-6.63 366.69-7.94ZM357.11-13.07L357.11-13.07L357.11-13.07Q360.44-13.07 362.37-15.13L362.37-15.13L362.37-15.13Q364.30-17.11 364.30-20.26L364.30-20.26L364.30-20.26Q364.30-21.34 363.90-21.93L363.90-21.93L363.90-21.93Q363.50-22.51 362.70-22.51L362.70-22.51L362.70-22.51Q361.90-22.51 361.22-22.21L361.22-22.21L361.22-22.21Q360.54-21.90 359.83-20.87L359.83-20.87L359.83-20.87Q358.09-18.52 357.11-13.07ZM391.70-7.94L391.70-7.94L391.70-7.94Q392.87-7.14 392.87-5.38L392.87-5.38L392.87-5.38Q392.87-3.62 391.98-2.49L391.98-2.49L391.98-2.49Q391.09-1.36 389.63-0.61L389.63-0.61L389.63-0.61Q386.62 0.94 383.38 0.94L383.38 0.94L383.38 0.94Q380.14 0.94 378.23 0.23L378.23 0.23L378.23 0.23Q376.33-0.47 375.06-1.79L375.06-1.79L375.06-1.79Q372.57-4.28 372.57-8.84L372.57-8.84L372.57-8.84Q372.57-15.93 376.42-20.26L376.42-20.26L376.42-20.26Q380.56-24.91 387.75-24.91L387.75-24.91L387.75-24.91Q392.22-24.91 394.42-23.03L394.42-23.03L394.42-23.03Q396.07-21.62 396.07-19.32L396.07-19.32L396.07-19.32Q396.07-11.04 381.78-11.04L381.78-11.04L381.78-11.04Q381.59-9.82 381.59-8.79L381.59-8.79L381.59-8.79Q381.59-6.63 382.56-5.80L382.56-5.80L382.56-5.80Q383.52-4.98 385.31-4.98L385.31-4.98L385.31-4.98Q387.09-4.98 389.00-5.80L389.00-5.80L389.00-5.80Q390.90-6.63 391.70-7.94ZM382.11-13.07L382.11-13.07L382.11-13.07Q385.45-13.07 387.37-15.13L387.37-15.13L387.37-15.13Q389.30-17.11 389.30-20.26L389.30-20.26L389.30-20.26Q389.30-21.34 388.90-21.93L388.90-21.93L388.90-21.93Q388.50-22.51 387.70-22.51L387.70-22.51L387.70-22.51Q386.90-22.51 386.22-22.21L386.22-22.21L386.22-22.21Q385.54-21.90 384.84-20.87L384.84-20.87L384.84-20.87Q383.10-18.52 382.11-13.07ZM417.55 0.94L417.55 0.94L417.55 0.94Q411.86 0.94 411.86-3.48L411.86-3.48L411.86-3.48Q411.91-4.70 412.28-6.77L412.28-6.77L413.13-11.09L413.13-11.09Q414.40-17.20 414.40-18.57L414.40-18.57L414.40-18.57Q414.40-21.29 412.80-21.29L412.80-21.29L412.80-21.29Q410.12-21.29 408.71-14.29L408.71-14.29L405.94 0L396.49 0.94L401.38-24.02L409.09-24.91L408.34-20.30L408.34-20.30Q410.55-24.91 417.31-24.91L417.31-24.91L417.31-24.91Q420.60-24.91 421.99-23.52L421.99-23.52L421.99-23.52Q423.38-22.14 423.38-19.04L423.38-19.04L423.38-19.04Q423.38-16.12 421.87-9.31L421.87-9.31L421.87-9.31Q421.17-6.25 421.17-5.10L421.17-5.10L421.17-5.10Q421.17-3.95 421.80-3.29L421.80-3.29L421.80-3.29Q422.44-2.63 423.38-2.54L423.38-2.54L423.38-2.54Q422.91-0.94 421.28 0L421.28 0L421.28 0Q419.66 0.94 417.55 0.94Z" fill="#0ba5e9"></path></g></g><style>text {
  font-size: 64px;
  font-family: Arial Black;
  dominant-baseline: central;
  text-anchor: middle;
}</style></svg>